<svg width="575" height="54" viewBox="0 0 575 54" fill="none" xmlns="http://www.w3.org/2000/svg">
<path d="M39.544 40.724C40.072 40.724 40.54 40.928 40.948 41.336L44.764 45.476C42.652 48.092 40.048 50.096 36.952 51.488C33.88 52.88 30.184 53.576 25.864 53.576C22 53.576 18.52 52.916 15.424 51.596C12.352 50.276 9.724 48.44 7.54 46.088C5.356 43.736 3.676 40.928 2.5 37.664C1.348 34.4 0.772 30.836 0.772 26.972C0.772 23.06 1.396 19.484 2.644 16.244C3.892 12.98 5.644 10.172 7.9 7.82C10.18 5.468 12.892 3.644 16.036 2.348C19.18 1.028 22.66 0.368 26.476 0.368C30.268 0.368 33.628 0.991999 36.556 2.24C39.508 3.488 42.016 5.12 44.08 7.136L40.84 11.636C40.648 11.924 40.396 12.176 40.084 12.392C39.796 12.608 39.388 12.716 38.86 12.716C38.5 12.716 38.128 12.62 37.744 12.428C37.36 12.212 36.94 11.96 36.484 11.672C36.028 11.36 35.5 11.024 34.9 10.664C34.3 10.304 33.604 9.98 32.812 9.692C32.02 9.38 31.096 9.128 30.04 8.936C29.008 8.72 27.808 8.612 26.44 8.612C24.112 8.612 21.976 9.032 20.032 9.872C18.112 10.688 16.456 11.888 15.064 13.472C13.672 15.032 12.592 16.952 11.824 19.232C11.056 21.488 10.672 24.068 10.672 26.972C10.672 29.9 11.08 32.504 11.896 34.784C12.736 37.064 13.864 38.984 15.28 40.544C16.696 42.104 18.364 43.304 20.284 44.144C22.204 44.96 24.268 45.368 26.476 45.368C27.796 45.368 28.984 45.296 30.04 45.152C31.12 45.008 32.104 44.78 32.992 44.468C33.904 44.156 34.756 43.76 35.548 43.28C36.364 42.776 37.168 42.164 37.96 41.444C38.2 41.228 38.452 41.06 38.716 40.94C38.98 40.796 39.256 40.724 39.544 40.724ZM85.4896 45.008V53H54.9976V0.943996H64.6816V45.008H85.4896ZM143.82 26.972C143.82 30.788 143.184 34.328 141.912 37.592C140.664 40.832 138.888 43.64 136.584 46.016C134.28 48.392 131.508 50.252 128.268 51.596C125.028 52.916 121.428 53.576 117.468 53.576C113.532 53.576 109.944 52.916 106.704 51.596C103.464 50.252 100.68 48.392 98.3517 46.016C96.0477 43.64 94.2597 40.832 92.9877 37.592C91.7157 34.328 91.0797 30.788 91.0797 26.972C91.0797 23.156 91.7157 19.628 92.9877 16.388C94.2597 13.124 96.0477 10.304 98.3517 7.928C100.68 5.552 103.464 3.704 106.704 2.384C109.944 1.04 113.532 0.368 117.468 0.368C120.108 0.368 122.592 0.679998 124.92 1.304C127.248 1.904 129.384 2.768 131.328 3.896C133.272 5 135.012 6.356 136.548 7.964C138.108 9.548 139.428 11.324 140.508 13.292C141.588 15.26 142.404 17.396 142.956 19.7C143.532 22.004 143.82 24.428 143.82 26.972ZM133.92 26.972C133.92 24.116 133.536 21.56 132.768 19.304C132 17.024 130.908 15.092 129.492 13.508C128.076 11.924 126.348 10.712 124.308 9.872C122.292 9.032 120.012 8.612 117.468 8.612C114.924 8.612 112.632 9.032 110.592 9.872C108.576 10.712 106.848 11.924 105.408 13.508C103.992 15.092 102.9 17.024 102.132 19.304C101.364 21.56 100.98 24.116 100.98 26.972C100.98 29.828 101.364 32.396 102.132 34.676C102.9 36.932 103.992 38.852 105.408 40.436C106.848 41.996 108.576 43.196 110.592 44.036C112.632 44.876 114.924 45.296 117.468 45.296C120.012 45.296 122.292 44.876 124.308 44.036C126.348 43.196 128.076 41.996 129.492 40.436C130.908 38.852 132 36.932 132.768 34.676C133.536 32.396 133.92 29.828 133.92 26.972ZM176.876 45.188C178.748 45.188 180.416 44.876 181.88 44.252C183.368 43.628 184.616 42.752 185.624 41.624C186.632 40.496 187.4 39.128 187.928 37.52C188.48 35.912 188.756 34.112 188.756 32.12V0.943996H198.44V32.12C198.44 35.216 197.936 38.084 196.928 40.724C195.944 43.34 194.516 45.608 192.644 47.528C190.796 49.424 188.54 50.912 185.876 51.992C183.212 53.048 180.212 53.576 176.876 53.576C173.516 53.576 170.504 53.048 167.84 51.992C165.176 50.912 162.908 49.424 161.036 47.528C159.188 45.608 157.76 43.34 156.752 40.724C155.768 38.084 155.276 35.216 155.276 32.12V0.943996H164.96V32.084C164.96 34.076 165.224 35.876 165.752 37.484C166.304 39.092 167.084 40.472 168.092 41.624C169.124 42.752 170.372 43.628 171.836 44.252C173.324 44.876 175.004 45.188 176.876 45.188ZM259.186 26.972C259.186 30.788 258.55 34.292 257.278 37.484C256.006 40.676 254.218 43.424 251.914 45.728C249.61 48.032 246.838 49.82 243.598 51.092C240.358 52.364 236.758 53 232.798 53H212.962V0.943996H232.798C236.758 0.943996 240.358 1.592 243.598 2.888C246.838 4.16 249.61 5.948 251.914 8.252C254.218 10.532 256.006 13.268 257.278 16.46C258.55 19.652 259.186 23.156 259.186 26.972ZM249.25 26.972C249.25 24.116 248.866 21.56 248.098 19.304C247.354 17.024 246.262 15.104 244.822 13.544C243.406 11.96 241.678 10.748 239.638 9.908C237.622 9.068 235.342 8.648 232.798 8.648H222.682V45.296H232.798C235.342 45.296 237.622 44.876 239.638 44.036C241.678 43.196 243.406 41.996 244.822 40.436C246.262 38.852 247.354 36.932 248.098 34.676C248.866 32.396 249.25 29.828 249.25 26.972ZM290.811 45.44C292.611 45.44 294.123 45.224 295.347 44.792C296.571 44.36 297.543 43.784 298.263 43.064C299.007 42.344 299.535 41.504 299.847 40.544C300.183 39.584 300.351 38.564 300.351 37.484C300.351 36.356 300.171 35.348 299.811 34.46C299.451 33.548 298.887 32.78 298.119 32.156C297.351 31.508 296.355 31.016 295.131 30.68C293.931 30.344 292.479 30.176 290.775 30.176H281.019V45.44H290.811ZM281.019 8.432V23.48H288.723C292.035 23.48 294.531 22.88 296.211 21.68C297.915 20.48 298.767 18.572 298.767 15.956C298.767 13.244 297.999 11.312 296.463 10.16C294.927 9.008 292.527 8.432 289.263 8.432H281.019ZM289.263 0.943996C292.671 0.943996 295.587 1.268 298.011 1.916C300.435 2.564 302.415 3.488 303.951 4.688C305.511 5.888 306.651 7.34 307.371 9.044C308.091 10.748 308.451 12.668 308.451 14.804C308.451 16.028 308.271 17.204 307.911 18.332C307.551 19.436 306.987 20.48 306.219 21.464C305.475 22.424 304.515 23.3 303.339 24.092C302.187 24.884 300.807 25.556 299.199 26.108C306.351 27.716 309.927 31.58 309.927 37.7C309.927 39.908 309.507 41.948 308.667 43.82C307.827 45.692 306.603 47.312 304.995 48.68C303.387 50.024 301.407 51.08 299.055 51.848C296.703 52.616 294.015 53 290.991 53H271.335V0.943996H289.263ZM343.278 45.188C345.15 45.188 346.818 44.876 348.282 44.252C349.77 43.628 351.018 42.752 352.026 41.624C353.034 40.496 353.802 39.128 354.33 37.52C354.882 35.912 355.158 34.112 355.158 32.12V0.943996H364.842V32.12C364.842 35.216 364.338 38.084 363.33 40.724C362.346 43.34 360.918 45.608 359.046 47.528C357.198 49.424 354.942 50.912 352.278 51.992C349.614 53.048 346.614 53.576 343.278 53.576C339.918 53.576 336.906 53.048 334.242 51.992C331.578 50.912 329.31 49.424 327.438 47.528C325.59 45.608 324.162 43.34 323.154 40.724C322.17 38.084 321.678 35.216 321.678 32.12V0.943996H331.362V32.084C331.362 34.076 331.626 35.876 332.154 37.484C332.706 39.092 333.486 40.472 334.494 41.624C335.526 42.752 336.774 43.628 338.238 44.252C339.726 44.876 341.406 45.188 343.278 45.188ZM425.587 26.972C425.587 30.788 424.951 34.292 423.679 37.484C422.407 40.676 420.619 43.424 418.315 45.728C416.011 48.032 413.239 49.82 409.999 51.092C406.759 52.364 403.159 53 399.199 53H379.363V0.943996H399.199C403.159 0.943996 406.759 1.592 409.999 2.888C413.239 4.16 416.011 5.948 418.315 8.252C420.619 10.532 422.407 13.268 423.679 16.46C424.951 19.652 425.587 23.156 425.587 26.972ZM415.651 26.972C415.651 24.116 415.267 21.56 414.499 19.304C413.755 17.024 412.663 15.104 411.223 13.544C409.807 11.96 408.079 10.748 406.039 9.908C404.023 9.068 401.743 8.648 399.199 8.648H389.083V45.296H399.199C401.743 45.296 404.023 44.876 406.039 44.036C408.079 43.196 409.807 41.996 411.223 40.436C412.663 38.852 413.755 36.932 414.499 34.676C415.267 32.396 415.651 29.828 415.651 26.972ZM480.649 26.9V47.96C478.009 49.904 475.189 51.332 472.189 52.244C469.213 53.132 466.021 53.576 462.613 53.576C458.365 53.576 454.513 52.916 451.057 51.596C447.625 50.276 444.685 48.44 442.237 46.088C439.813 43.736 437.941 40.928 436.621 37.664C435.301 34.4 434.641 30.836 434.641 26.972C434.641 23.06 435.277 19.472 436.549 16.208C437.821 12.944 439.621 10.136 441.949 7.784C444.301 5.432 447.145 3.608 450.481 2.312C453.817 1.016 457.561 0.368 461.713 0.368C463.825 0.368 465.793 0.535999 467.617 0.871997C469.465 1.208 471.169 1.676 472.729 2.276C474.313 2.852 475.753 3.56 477.049 4.4C478.345 5.24 479.533 6.164 480.613 7.172L477.841 11.564C477.409 12.26 476.845 12.692 476.149 12.86C475.453 13.004 474.697 12.824 473.881 12.32C473.089 11.864 472.297 11.408 471.505 10.952C470.713 10.496 469.825 10.1 468.841 9.764C467.881 9.428 466.789 9.152 465.565 8.936C464.365 8.72 462.973 8.612 461.389 8.612C458.821 8.612 456.493 9.044 454.405 9.908C452.341 10.772 450.577 12.008 449.113 13.616C447.649 15.224 446.521 17.156 445.729 19.412C444.937 21.668 444.541 24.188 444.541 26.972C444.541 29.948 444.961 32.612 445.801 34.964C446.665 37.292 447.865 39.272 449.401 40.904C450.961 42.512 452.833 43.748 455.017 44.612C457.201 45.452 459.637 45.872 462.325 45.872C464.245 45.872 465.961 45.668 467.473 45.26C468.985 44.852 470.461 44.3 471.901 43.604V34.172H465.349C464.725 34.172 464.233 34.004 463.873 33.668C463.537 33.308 463.369 32.876 463.369 32.372V26.9H480.649ZM503.299 8.648V23.084H521.515V30.536H503.299V45.26H526.411V53H493.579V0.943996H526.411V8.648H503.299ZM574.953 8.9H559.257V53H549.573V8.9H533.877V0.943996H574.953V8.9Z" fill="white"/>
</svg>
